<?xml version="1.0" encoding="UTF-8" standalone="no"?>
<!DOCTYPE svg PUBLIC "-//W3C//DTD SVG 1.1//EN"
 "http://www.w3.org/Graphics/SVG/1.1/DTD/svg11.dtd">
<!-- Generated by graphviz version 2.40.1 (0)
 -->
<!-- Title: %3 Pages: 1 -->
<svg width="1062pt" height="260pt"
 viewBox="0.00 0.00 1062.00 260.00" xmlns="http://www.w3.org/2000/svg" xmlns:xlink="http://www.w3.org/1999/xlink">
<g id="graph0" class="graph" transform="scale(1 1) rotate(0) translate(4 256)">
<title>%3</title>
<polygon fill="#ffffff" stroke="transparent" points="-4,4 -4,-256 1058.004,-256 1058.004,4 -4,4"/>
<!-- [root] aws_instance.webserver1 (expand) -->
<g id="node1" class="node">
<title>[root] aws_instance.webserver1 (expand)</title>
<polygon fill="none" stroke="#000000" points="592.7301,-108 391.7301,-108 391.7301,-72 592.7301,-72 592.7301,-108"/>
<text text-anchor="middle" x="492.2301" y="-86.3" font-family="Times,serif" font-size="14.00" fill="#000000">aws_instance.webserver1</text>
</g>
<!-- [root] provider[&quot;registry.terraform.io/hashicorp/aws&quot;] -->
<g id="node2" class="node">
<title>[root] provider[&quot;registry.terraform.io/hashicorp/aws&quot;]</title>
<polygon fill="none" stroke="#000000" points="492.2301,-36 164.79,-18 492.2301,0 819.6702,-18 492.2301,-36"/>
<text text-anchor="middle" x="492.2301" y="-14.3" font-family="Times,serif" font-size="14.00" fill="#000000">provider[&quot;registry.terraform.io/hashicorp/aws&quot;]</text>
</g>
<!-- [root] aws_instance.webserver1 (expand)&#45;&gt;[root] provider[&quot;registry.terraform.io/hashicorp/aws&quot;] -->
<g id="edge1" class="edge">
<title>[root] aws_instance.webserver1 (expand)&#45;&gt;[root] provider[&quot;registry.terraform.io/hashicorp/aws&quot;]</title>
<path fill="none" stroke="#000000" d="M492.2301,-71.8314C492.2301,-64.131 492.2301,-54.9743 492.2301,-46.4166"/>
<polygon fill="#000000" stroke="#000000" points="495.7302,-46.4132 492.2301,-36.4133 488.7302,-46.4133 495.7302,-46.4132"/>
</g>
<!-- [root] meta.count&#45;boundary (EachMode fixup) -->
<g id="node3" class="node">
<title>[root] meta.count&#45;boundary (EachMode fixup)</title>
<ellipse fill="none" stroke="#000000" cx="224.2301" cy="-162" rx="224.4604" ry="18"/>
<text text-anchor="middle" x="224.2301" y="-158.3" font-family="Times,serif" font-size="14.00" fill="#000000">[root] meta.count&#45;boundary (EachMode fixup)</text>
</g>
<!-- [root] meta.count&#45;boundary (EachMode fixup)&#45;&gt;[root] aws_instance.webserver1 (expand) -->
<g id="edge2" class="edge">
<title>[root] meta.count&#45;boundary (EachMode fixup)&#45;&gt;[root] aws_instance.webserver1 (expand)</title>
<path fill="none" stroke="#000000" d="M288.7638,-144.6626C326.8249,-134.4372 375.2209,-121.4353 415.2635,-110.6776"/>
<polygon fill="#000000" stroke="#000000" points="416.238,-114.04 424.9875,-108.0652 414.4218,-107.2797 416.238,-114.04"/>
</g>
<!-- [root] provider[&quot;registry.terraform.io/hashicorp/aws&quot;] (close) -->
<g id="node4" class="node">
<title>[root] provider[&quot;registry.terraform.io/hashicorp/aws&quot;] (close)</title>
<ellipse fill="none" stroke="#000000" cx="760.2301" cy="-162" rx="293.548" ry="18"/>
<text text-anchor="middle" x="760.2301" y="-158.3" font-family="Times,serif" font-size="14.00" fill="#000000">[root] provider[&quot;registry.terraform.io/hashicorp/aws&quot;] (close)</text>
</g>
<!-- [root] provider[&quot;registry.terraform.io/hashicorp/aws&quot;] (close)&#45;&gt;[root] aws_instance.webserver1 (expand) -->
<g id="edge3" class="edge">
<title>[root] provider[&quot;registry.terraform.io/hashicorp/aws&quot;] (close)&#45;&gt;[root] aws_instance.webserver1 (expand)</title>
<path fill="none" stroke="#000000" d="M694.6699,-144.3868C656.813,-134.2163 608.9939,-121.3694 569.3381,-110.7156"/>
<polygon fill="#000000" stroke="#000000" points="570.0087,-107.2717 559.443,-108.0572 568.1925,-114.032 570.0087,-107.2717"/>
</g>
<!-- [root] root -->
<g id="node5" class="node">
<title>[root] root</title>
<ellipse fill="none" stroke="#000000" cx="492.2301" cy="-234" rx="58.4896" ry="18"/>
<text text-anchor="middle" x="492.2301" y="-230.3" font-family="Times,serif" font-size="14.00" fill="#000000">[root] root</text>
</g>
<!-- [root] root&#45;&gt;[root] meta.count&#45;boundary (EachMode fixup) -->
<g id="edge4" class="edge">
<title>[root] root&#45;&gt;[root] meta.count&#45;boundary (EachMode fixup)</title>
<path fill="none" stroke="#000000" d="M447.9754,-222.1107C407.3615,-211.1995 346.3912,-194.8194 298.349,-181.9125"/>
<polygon fill="#000000" stroke="#000000" points="299.1802,-178.5118 288.6146,-179.2973 297.364,-185.2721 299.1802,-178.5118"/>
</g>
<!-- [root] root&#45;&gt;[root] provider[&quot;registry.terraform.io/hashicorp/aws&quot;] (close) -->
<g id="edge5" class="edge">
<title>[root] root&#45;&gt;[root] provider[&quot;registry.terraform.io/hashicorp/aws&quot;] (close)</title>
<path fill="none" stroke="#000000" d="M536.4849,-222.1107C576.8206,-211.2742 637.2347,-195.0435 685.1222,-182.1782"/>
<polygon fill="#000000" stroke="#000000" points="686.0812,-185.5448 694.8306,-179.57 684.265,-178.7845 686.0812,-185.5448"/>
</g>
</g>
</svg>
